<svg xmlns="http://www.w3.org/2000/svg" width="256" height="256"><path fill="#1976D2" fill-opacity=".016" fill-rule="evenodd" d="M0 128.004v128.004l128.25-.254 128.25-.254.254-127.75L257.008 0H0zm.485.496c0 70.4.119 99.053.265 63.672s.146-92.98 0-128S.485 58.1.485 128.5"/><path fill="#1976D2" fill-opacity=".283" fill-rule="evenodd" d="M0 128.004v128.004l128.25-.254 128.25-.254.254-127.75L257.008 0H0zm.485.496c0 70.4.119 99.053.265 63.672s.146-92.98 0-128S.485 58.1.485 128.5M26 77.5V129h23V87h35V65.047l-17.25-.273L49.5 64.5l-.292-7.75-.292-7.75H88V26H26zm69.019-1.284c-.029 27.73.201 50.671.511 50.981.311.31 3.34-.3 6.732-1.356 3.392-1.055 8.434-2.245 11.203-2.643l5.035-.723.276-15.238.276-15.237h7.264c9.134 0 17.629-2.178 23.054-5.911 14.095-9.697 15.228-40.351 1.924-52.061-7.136-6.282-11.611-7.262-35.509-7.78l-20.714-.449zM168 77.573v51.574l8.25-.398c6.268-.302 9.812-1.083 14.75-3.247 5.737-2.515 7.674-2.847 16.5-2.834 7.356.012 11.652.559 16.25 2.069l6.25 2.053V106h-38V26h-24zm-49-18.047v11.759l6.046-.632c3.325-.348 6.889-1.083 7.92-1.635 4.446-2.379 5.072-14.863.933-18.609-1.369-1.239-4.072-1.953-8.456-2.232l-6.443-.41z"/><path fill="#1976D2" fill-opacity=".372" fill-rule="evenodd" d="M0 128.004v128.004l128.25-.254 128.25-.254.254-127.75L257.008 0H0zm.485.496c0 70.4.119 99.053.265 63.672s.146-92.98 0-128S.485 58.1.485 128.5M26 77.5V129h22.959l.271-20.75.27-20.75 17.783-.273 17.782-.273-.282-11.227L84.5 64.5l-17.75-.273L49 63.954V49h39V26H26zm69 11.369v63.039l8.25-3.947c14.002-6.699 23.591-7.49 29.592-2.441 5.347 4.5 4.945 12.221-1.078 20.664-1.795 2.517-10.689 12.555-19.764 22.306s-17.047 18.692-17.715 19.869c-.687 1.212-1.229 5.936-1.25 10.891L93 228h68v-21h-19.5c-10.725 0-19.5-.153-19.5-.341s5.661-5.925 12.581-12.75c19.354-19.09 24.864-27.307 26.074-38.885 1.966-18.811-11.889-31.909-34.243-32.371l-7.41-.153-.001-14.75L119 93l4.25-.008c12.075-.021 24.306-3.872 29.567-9.308 9.659-9.983 10.887-33.898 2.371-46.184-1.909-2.755-4.906-5.09-9.625-7.5l-6.854-3.5-21.854-.335L95 25.831zM168 77.5V129h15.274l-4.706 5.03c-5.013 5.36-8.415 12.043-10.675 20.97-1.905 7.521-1.905 38.479 0 46 4.879 19.272 14.132 27.875 30.979 28.803 10.23.563 17.49-.945 23.402-4.861 8.847-5.86 12.805-14.446 13.503-29.295.831-17.66-4.167-28.745-15.459-34.29-5.043-2.476-6.951-2.852-14.318-2.822-6.063.025-9.417.527-11.7 1.75-4.1 2.197-4.3 2.169-4.3-.589 0-4.523 4.762-12.194 9.076-14.618 5.855-3.291 14.982-2.669 24.174 1.647l6.75 3.17V106h-38V26h-24zM119 59v11h6.045c5.086 0 6.436-.39 8.5-2.455 2.023-2.022 2.455-3.441 2.455-8.065 0-3.086-.441-6.435-.979-7.441-1.257-2.348-6.141-4.039-11.67-4.039H119zm79.096 120.265c-3.882 1.995-6.162 5.974-6.759 11.794-1.128 11.007 3.226 18.941 10.395 18.941 7.518 0 11.268-5.153 11.268-15.482 0-8.092-1.884-12.89-5.872-14.952-3.631-1.877-5.822-1.951-9.032-.301"/><path fill="#1976D2" fill-opacity=".823" fill-rule="evenodd" d="M0 128.004v128.004l128.25-.254 128.25-.254.254-127.75L257.008 0H0zm.485.496c0 70.4.119 99.053.265 63.672s.146-92.98 0-128S.485 58.1.485 128.5M25.458 26.25c-.263.688-.361 24.2-.218 52.25l.26 51h24l.27-20.75.271-20.75H85V64H50V49h38V25H56.969c-23.904 0-31.142.287-31.511 1.25M95 88.5c0 34.925.238 63.5.529 63.5.29 0 3.103-1.299 6.25-2.888 11.539-5.824 23.233-7.709 29.076-4.687 5.202 2.69 6.574 9.856 3.271 17.075-2.053 4.485-5.245 8.21-26.365 30.764L93 208.029v20.997l34.25-.263 34.25-.263v-22l-19.052-.271-19.053-.271 13.585-13.729c20.048-20.262 24.039-26.995 23.998-40.49-.055-18.224-13.642-29.689-35.228-29.727L119 122V93.273l9.25-.518c15.713-.88 25.273-6.173 30.136-16.685 1.781-3.85 2.114-6.462 2.114-16.57 0-10.408-.305-12.663-2.301-17-6.337-13.769-16.306-17.441-47.449-17.48L95 25zm73-11V130h13.233l-3.573 3.955c-1.966 2.175-4.521 5.812-5.678 8.081-5.358 10.502-7.989 31.269-6.091 48.071 2.296 20.32 7.942 30.979 19.542 36.893 6.504 3.316 7.397 3.5 16.966 3.5 9.013 0 10.709-.298 15.743-2.77 7.215-3.544 12.971-9.812 15.897-17.311 1.89-4.844 2.323-7.917 2.381-16.919.085-13.273-1.651-19.209-7.596-25.962-6.514-7.401-10.514-9.019-22.324-9.029-7.401-.007-10.845.426-13.25 1.664l-3.25 1.674.599-2.674c.329-1.47 1.566-4.69 2.75-7.156 2.978-6.207 7.288-8.532 15.683-8.463 6.318.051 8.343.742 21.218 7.234.412.208.75-9.784.75-22.205V106h-39V25h-24zm-48.257-28.91c-.409.409-.743 5.393-.743 11.077V70h4.351C132.945 70 136 67.196 136 58.389c0-5.187-3.28-9.389-7.33-9.389-1.331 0-3.717-.259-5.302-.576s-3.216-.242-3.625.166m76.913 131.543c-2.835 1.648-4.656 7.158-4.654 14.085.002 11.393 5.171 17.245 13.125 14.862 2.607-.781 4.356-2.113 5.384-4.101 3.773-7.297 2.564-20.202-2.247-23.986-2.77-2.179-8.597-2.61-11.608-.86"/></svg>