<svg xmlns="http://www.w3.org/2000/svg" viewBox="0 0 100 100"><path fill="#00f" d="M0 0h100v100H0z"/><path fill="#fff" d="M10 10v40.5h9.335V34.18h13.74v-9.107h-13.74V19.11H34.43V10zm27.156 0v40.5h9.334V36.268h1.454c5.02 0 8.802-.923 11.304-3.075v-.002c2.475-2.14 3.642-5.622 3.642-10.057s-1.167-7.916-3.642-10.056v-.003C56.747 10.923 52.963 10 47.945 10Zm28.51 0v40.5h24.38v-9.11H75.002V10ZM46.49 18.803h1.715c2.184 0 3.548.454 4.1.954.559.505.966 1.522.966 3.377s-.407 2.872-.966 3.378c-.552.5-1.916.954-4.1.954H46.49z" font-family="Hack" font-size="65.278" font-weight="700" letter-spacing="-.326" overflow="visible" style="line-height:1;-inkscape-font-specification:&quot;Hack Bold&quot;"/><path fill="#0f0" d="M48.846 47.691q-2.633 0-5.407.54a33 33 0 0 0-2.58.618c-.97.27-1.983.599-3.05.99l-.653.23v9.503l1.458-.823a28 28 0 0 1 2.645-1.336h.01v-.002a27 27 0 0 1 2.548-.985c1.557-.514 2.995-.761 4.321-.761 1.756 0 2.977.423 3.826 1.19.856.771 1.277 1.764 1.277 3.232 0 1.03-.245 2.052-.763 3.103l-.01.012-.01.01a9.5 9.5 0 0 1-1.045 1.733q-.683.884-1.632 1.986a523 523 0 0 0-1.76 1.943q-.955 1.058-2.65 2.857a794 794 0 0 0-4.602 4.942l-3.53 3.764-.01.01c-.564.632-.897 1.43-.897 2.257v6.599h26.674v-8.707H47.487c.348-.262.647-.474 1.087-.83l.01-.004.01-.004c.775-.647 1.787-1.61 3.067-2.907v-.004q3.185-3.186 4.945-5.025c1.178-1.231 2.082-2.238 2.722-3.043v-.006q1.745-2.236 2.766-4.688l.01-.014.01-.014c.561-1.478.846-3 .846-4.544 0-1.92-.333-3.624-1.033-5.085a10.26 10.26 0 0 0-2.846-3.65v-.004c-1.34-1.076-2.909-1.857-4.67-2.341h-.001c-1.73-.497-3.588-.742-5.564-.742Zm32.428.052c-5.377 0-9.643 1.795-12.478 5.376v.004c-1.509 1.92-2.574 4.268-3.209 7.008-.63 2.702-.937 5.802-.937 9.306 0 3.288.254 6.22.774 8.805v.008c.543 2.602 1.418 4.822 2.653 6.637 1.198 1.778 2.733 3.126 4.564 3.985l.01.002.01.002c1.836.833 3.961 1.235 6.35 1.235 4.21 0 7.622-1.29 9.979-3.894v-.002c1.179-1.312 2.047-2.906 2.605-4.743v-.002c.571-1.845.852-3.865.852-6.053 0-4.272-.998-7.697-3.105-10.13-2.072-2.418-5.105-3.626-8.821-3.626q-1.514-.002-2.778.256a11 11 0 0 0-2.142.66v.002c-.523.222-.987.55-1.45.876.324-2.174.85-4.016 1.753-5.178 1.253-1.614 3-2.404 5.564-2.404 1.138 0 2.266.175 3.396.53v.002c1.225.376 2.471.934 3.737 1.684l1.445.856v-9.33l-.606-.239a24 24 0 0 0-4.068-1.221 19.5 19.5 0 0 0-4.092-.412Zm-2.322 22.025c1.474 0 2.397.451 3.112 1.433.72.989 1.148 2.53 1.148 4.686s-.428 3.685-1.144 4.653v.006c-.383.525-.808.87-1.307 1.095a4.55 4.55 0 0 1-1.786.34 4.55 4.55 0 0 1-1.776-.339c-.484-.224-.893-.56-1.259-1.066v-.002c-.332-.457-.62-1.072-.84-1.851-.199-.766-.31-1.722-.31-2.861 0-2.135.426-3.675 1.15-4.687a3.35 3.35 0 0 1 1.197-1.038c.468-.233 1.059-.369 1.811-.369z" font-family="Hack" font-size="68.755" font-weight="700" letter-spacing="-.258" overflow="visible" paint-order="fill markers stroke" style="line-height:1;-inkscape-font-specification:&quot;Hack Bold&quot;"/></svg>
